<?xml version="1.0" standalone="no"?>
<!DOCTYPE svg PUBLIC "-//W3C//DTD SVG 20010904//EN"
 "http://www.w3.org/TR/2001/REC-SVG-20010904/DTD/svg10.dtd">
<svg version="1.0" xmlns="http://www.w3.org/2000/svg"
 width="980.000000pt" height="690.000000pt" viewBox="0 0 980.000000 690.000000"
 preserveAspectRatio="xMidYMid meet">

<g transform="translate(0.000000,690.000000) scale(0.100000,-0.100000)"
fill="#000000" stroke="none">
<path d="M5120 6485 c-148 -223 -270 -409 -270 -413 0 -5 379 -260 842 -568
l842 -559 -434 -6 c-239 -3 -1132 -7 -1985 -8 -852 0 -2127 -4 -2832 -8
l-1283 -6 0 -490 0 -489 4802 6 c2642 3 4836 9 4876 12 l73 6 -38 27 c-44 32
-608 411 -2433 1638 -696 468 -1402 943 -1569 1057 -167 113 -308 206 -312
206 -5 0 -130 -182 -279 -405z"/>
<path d="M855 2940 c-582 -7 -780 -14 -789 -29 -5 -8 76 -64 1169 -800 1061
-715 2166 -1454 2734 -1831 l424 -281 30 28 c50 48 167 210 356 491 l181 271
-113 79 c-173 123 -485 335 -1062 722 l-529 355 1420 6 c780 3 2253 7 3272 8
l1852 1 0 495 0 495 -4162 -2 c-2290 -1 -4442 -5 -4783 -8z"/>
</g>
</svg>
